<svg width="512" height="512" viewBox="0 0 512 512" fill="none" xmlns="http://www.w3.org/2000/svg">
  <!-- Background gradient -->
  <rect width="512" height="512" rx="128" fill="url(#gradient)"/>

  <!-- Letter C -->
  <path d="M 256 128
           A 128 128 0 0 1 384 256
           A 128 128 0 0 1 256 384
           A 128 128 0 0 1 128 256
           A 128 128 0 0 1 190 153
           L 220 180
           A 96 96 0 0 0 160 256
           A 96 96 0 0 0 256 352
           A 96 96 0 0 0 352 256
           A 96 96 0 0 0 256 160
           L 256 128 Z"
        fill="white" opacity="0.95"/>

  <!-- Checkmark overlay -->
  <path d="M 320 220 L 280 280 L 240 240"
        stroke="white"
        stroke-width="20"
        stroke-linecap="round"
        stroke-linejoin="round"
        fill="none"
        opacity="0.8"/>

  <defs>
    <linearGradient id="gradient" x1="0%" y1="0%" x2="100%" y2="100%">
      <stop offset="0%" style="stop-color:#0ea5e9;stop-opacity:1" />
      <stop offset="100%" style="stop-color:#06b6d4;stop-opacity:1" />
    </linearGradient>
  </defs>
</svg>
